<svg width="304" height="24" viewBox="0 0 304 24" fill="none" xmlns="http://www.w3.org/2000/svg">
<path d="M17.5628 1.00458L14.7856 1C11.6654 1 9.64903 3.12509 9.64903 6.41423V8.91055H6.85662C6.61532 8.91055 6.41992 9.1115 6.41992 9.35937V12.9763C6.41992 13.2241 6.61554 13.4249 6.85662 13.4249H9.64903V22.5514C9.64903 22.7993 9.84443 23 10.0857 23H13.729C13.9703 23 14.1657 22.799 14.1657 22.5514V13.4249H17.4307C17.672 13.4249 17.8674 13.2241 17.8674 12.9763L17.8688 9.35937C17.8688 9.24036 17.8226 9.12638 17.7409 9.04215C17.6591 8.95793 17.5477 8.91055 17.4318 8.91055H14.1657V6.79439C14.1657 5.77728 14.4017 5.26094 15.6915 5.26094L17.5624 5.26025C17.8035 5.26025 17.9989 5.0593 17.9989 4.81166V1.45317C17.9989 1.20576 17.8037 1.00504 17.5628 1.00458Z" fill="#787A80"/>
<path d="M78.5 5.77233C77.7271 6.10027 76.8978 6.32267 76.0264 6.42196C76.9161 5.91181 77.5972 5.10263 77.92 4.1414C77.0854 4.61383 76.1642 4.95688 75.1826 5.14285C74.3966 4.33994 73.2785 3.83984 72.0384 3.83984C69.6593 3.83984 67.7303 5.68691 67.7303 7.9637C67.7303 8.2866 67.7683 8.60199 67.8418 8.90357C64.262 8.73141 61.0877 7.08917 58.9631 4.59372C58.5918 5.20189 58.3805 5.91053 58.3805 6.66697C58.3805 8.09814 59.1416 9.36093 60.2964 10.0997C59.5904 10.0771 58.9264 9.89116 58.3451 9.58205V9.63357C58.3451 11.6314 59.8306 13.2988 61.8002 13.6783C61.4394 13.7713 61.0588 13.8228 60.6651 13.8228C60.387 13.8228 60.1179 13.7964 59.8542 13.7461C60.4027 15.3859 61.9931 16.5783 63.8776 16.611C62.4039 17.7167 60.5457 18.3739 58.5275 18.3739C58.1798 18.3739 57.8372 18.3537 57.5 18.3173C59.4067 19.4896 61.6704 20.1732 64.1033 20.1732C72.028 20.1732 76.3597 13.8881 76.3597 8.43741L76.3453 7.90341C77.1917 7.32537 77.9239 6.59912 78.5 5.77233Z" fill="#787A80"/>
<path fill-rule="evenodd" clip-rule="evenodd" d="M133.39 4.11358C134.418 4.39044 135.229 5.20086 135.506 6.22899C136.02 8.10691 136 12.0213 136 12.0213C136 12.0213 136 15.9158 135.506 17.7939C135.229 18.8218 134.418 19.6324 133.39 19.9091C131.512 20.4035 124 20.4035 124 20.4035C124 20.4035 116.507 20.4035 114.61 19.8895C113.581 19.6127 112.771 18.802 112.494 17.7741C112 15.9158 112 12.0015 112 12.0015C112 12.0015 112 8.10691 112.494 6.22899C112.771 5.20104 113.601 4.37066 114.609 4.09399C116.488 3.59961 124 3.59961 124 3.59961C124 3.59961 131.512 3.59961 133.39 4.11358ZM127.855 12.0016L121.608 15.5996V8.40355L127.855 12.0016Z" fill="#787A80"/>
<path d="M177.633 15.1813L177.269 20.7653C177.789 20.7653 178.015 20.5213 178.285 20.2283L180.726 17.6833L185.785 21.7243C186.712 22.2883 187.366 21.9913 187.616 20.7933L190.937 3.8214L190.937 3.8204C191.232 2.3244 190.442 1.73941 189.538 2.1064L170.021 10.2574C168.689 10.8214 168.71 11.6314 169.795 11.9984L174.784 13.6913L186.374 5.78039C186.92 5.38639 187.416 5.60439 187.008 5.99839L177.633 15.1813Z" fill="#787A80"/>
<path d="M245.98 7.88005C245.934 6.81738 245.762 6.0868 245.516 5.45374C245.262 4.78176 244.871 4.18014 244.359 3.68002C243.859 3.1721 243.253 2.77743 242.589 2.52745C241.952 2.28127 241.226 2.10943 240.163 2.06257C239.092 2.01175 238.752 2 236.037 2C233.322 2 232.982 2.01175 231.915 2.05861C230.853 2.10546 230.122 2.27746 229.489 2.52348C228.817 2.77743 228.215 3.16814 227.715 3.68002C227.207 4.18014 226.813 4.78573 226.563 5.44992C226.316 6.0868 226.145 6.81341 226.098 7.87609C226.047 8.9467 226.035 9.28658 226.035 12.002C226.035 14.7173 226.047 15.0572 226.094 16.1239C226.141 17.1865 226.313 17.9171 226.559 18.5502C226.813 19.2221 227.207 19.8238 227.715 20.3239C228.215 20.8318 228.821 21.2265 229.485 21.4765C230.122 21.7226 230.849 21.8945 231.911 21.9413C232.978 21.9883 233.318 21.9999 236.033 21.9999C238.749 21.9999 239.089 21.9883 240.155 21.9413C241.218 21.8945 241.948 21.7226 242.581 21.4765C243.925 20.9568 244.988 19.8941 245.508 18.5502C245.754 17.9133 245.926 17.1865 245.973 16.1239C246.019 15.0572 246.031 14.7173 246.031 12.002C246.031 9.28658 246.027 8.9467 245.98 7.88005ZM244.179 16.0457C244.136 17.0225 243.972 17.5499 243.836 17.9015C243.499 18.7728 242.808 19.4643 241.937 19.8004C241.585 19.9372 241.054 20.1012 240.081 20.1441C239.026 20.1911 238.71 20.2027 236.041 20.2027C233.373 20.2027 233.052 20.1911 232.001 20.1441C231.024 20.1012 230.497 19.9372 230.145 19.8004C229.712 19.6402 229.317 19.3862 228.997 19.0541C228.665 18.7298 228.411 18.3391 228.25 17.9055C228.114 17.5539 227.95 17.0225 227.907 16.0497C227.86 14.9948 227.848 14.6783 227.848 12.0097C227.848 9.34122 227.86 9.02087 227.907 7.96995C227.95 6.99319 228.114 6.46575 228.25 6.11412C228.411 5.68038 228.665 5.28586 229.001 4.96536C229.325 4.63327 229.716 4.37931 230.149 4.21921C230.501 4.08247 231.032 3.9184 232.005 3.87537C233.06 3.82851 233.377 3.81676 236.045 3.81676C238.717 3.81676 239.034 3.82851 240.085 3.87537C241.062 3.9184 241.589 4.08247 241.941 4.21921C242.374 4.37931 242.769 4.63327 243.089 4.96536C243.421 5.28967 243.675 5.68038 243.836 6.11412C243.972 6.46575 244.136 6.99701 244.179 7.96995C244.226 9.02484 244.238 9.34122 244.238 12.0097C244.238 14.6783 244.226 14.9908 244.179 16.0457Z" fill="#787A80"/>
<path d="M236.037 6.86423C233.201 6.86423 230.899 9.1654 230.899 12.002C230.899 14.8385 233.201 17.1397 236.037 17.1397C238.874 17.1397 241.175 14.8385 241.175 12.002C241.175 9.1654 238.874 6.86423 236.037 6.86423ZM236.037 15.3347C234.197 15.3347 232.704 13.8422 232.704 12.002C232.704 10.1617 234.197 8.66924 236.037 8.66924C237.877 8.66924 239.37 10.1617 239.37 12.002C239.37 13.8422 237.877 15.3347 236.037 15.3347Z" fill="#787A80"/>
<path d="M242.578 6.6611C242.578 7.32346 242.04 7.86053 241.378 7.86053C240.716 7.86053 240.179 7.32346 240.179 6.6611C240.179 5.99858 240.716 5.46167 241.378 5.46167C242.04 5.46167 242.578 5.99858 242.578 6.6611Z" fill="#787A80"/>
<path d="M301.995 22L302 21.9992V14.6642C302 11.0758 301.228 8.31167 297.033 8.31167C295.016 8.31167 293.662 9.41833 293.11 10.4675H293.052V8.64667H289.074V21.9992H293.216V15.3875C293.216 13.6467 293.546 11.9633 295.702 11.9633C297.826 11.9633 297.858 13.95 297.858 15.4992V22H301.995Z" fill="#787A80"/>
<path d="M282.33 8.6475H286.477V22H282.33V8.6475Z" fill="#787A80"/>
<path d="M284.402 2C283.076 2 282 3.07583 282 4.40167C282 5.7275 283.076 6.82583 284.402 6.82583C285.727 6.82583 286.803 5.7275 286.803 4.40167C286.802 3.07583 285.727 2 284.402 2Z" fill="#787A80"/>
</svg>
